<svg width="20" height="25" viewBox="0 0 20 25" fill="none" xmlns="http://www.w3.org/2000/svg">
<path d="M9.95318 0.78125C4.87308 0.78125 0.740234 4.91464 0.740234 9.99529C0.740234 13.6257 2.26012 17.2979 5.1356 20.615C7.28329 23.0926 9.41171 24.4964 9.50135 24.5549C9.63856 24.6447 9.79592 24.6895 9.95329 24.6895C10.1105 24.6895 10.2679 24.6447 10.4052 24.5549C10.4948 24.4964 12.6235 23.0926 14.7712 20.6151C17.6469 17.2979 19.1669 13.6257 19.1669 9.99529C19.1668 4.91464 15.0335 0.78125 9.95318 0.78125ZM9.95318 22.8495C8.25875 21.5868 2.39205 16.7274 2.39205 9.99529C2.39205 5.82545 5.78389 2.43306 9.95318 2.43306C14.1228 2.43306 17.515 5.82545 17.515 9.99529C17.515 16.7274 11.6477 21.5868 9.95318 22.8495Z" fill="#C9A994"/>
<path d="M9.95355 6.33691C7.93724 6.33691 6.29688 7.97739 6.29688 9.99392C6.29688 12.0099 7.93724 13.65 9.95355 13.65C11.9699 13.65 13.6101 12.0099 13.6101 9.99392C13.6101 7.9775 11.9698 6.33691 9.95355 6.33691ZM9.95355 11.9982C8.84805 11.9982 7.94869 11.0991 7.94869 9.99392C7.94869 8.8882 8.84805 7.98873 9.95355 7.98873C11.0589 7.98873 11.9583 8.8882 11.9583 9.99392C11.9583 11.0991 11.0589 11.9982 9.95355 11.9982Z" fill="#C9A994"/>
</svg>
