<svg width="29" height="21" viewBox="0 0 29 21" fill="none" xmlns="http://www.w3.org/2000/svg">
<path d="M26.0619 0.501953H2.6429C1.18567 0.501953 0 1.68763 0 3.14486V17.5599C0 19.0171 1.18567 20.2028 2.6429 20.2028H26.0619C27.5191 20.2028 28.7048 19.0171 28.7048 17.5599V3.14486C28.7048 1.68752 27.5191 0.501953 26.0619 0.501953ZM27.053 17.5599C27.053 18.1063 26.6084 18.551 26.0619 18.551H2.6429C2.09637 18.551 1.65181 18.1063 1.65181 17.5599V3.14486C1.65181 2.59844 2.09637 2.15377 2.6429 2.15377H26.0619C26.6084 2.15377 27.053 2.59844 27.053 3.14486V17.5599Z" fill="#C9A994"/>
<path d="M23.7908 5.21777H16.1998C15.8348 5.21777 15.5391 5.51367 15.5391 5.8785C15.5391 6.24333 15.8348 6.53923 16.1998 6.53923H23.7908C24.1557 6.53923 24.4515 6.24333 24.4515 5.8785C24.4515 5.51367 24.1557 5.21777 23.7908 5.21777Z" fill="#C9A994"/>
<path d="M23.7908 14.166H16.1998C15.8348 14.166 15.5391 14.4618 15.5391 14.8267C15.5391 15.1916 15.8348 15.4875 16.1998 15.4875H23.7908C24.1557 15.4875 24.4515 15.1916 24.4515 14.8267C24.4515 14.4618 24.1557 14.166 23.7908 14.166Z" fill="#C9A994"/>
<path d="M23.7919 9.04004H19.1978C18.833 9.04004 18.5371 9.33593 18.5371 9.70077C18.5371 10.0656 18.833 10.3615 19.1978 10.3615H23.7919C24.1568 10.3615 24.4526 10.0656 24.4526 9.70077C24.4526 9.33593 24.1568 9.04004 23.7919 9.04004Z" fill="#C9A994"/>
<path d="M23.7919 11.6025H19.1978C18.833 11.6025 18.5371 11.8984 18.5371 12.2633C18.5371 12.6282 18.833 12.924 19.1978 12.924H23.7919C24.1568 12.924 24.4526 12.6282 24.4526 12.2633C24.4526 11.8984 24.1568 11.6025 23.7919 11.6025Z" fill="#C9A994"/>
<path d="M9.38874 5.21777C6.55742 5.21777 4.25391 7.52117 4.25391 10.3526C4.25391 13.184 6.55742 15.4877 9.38874 15.4877C9.75357 15.4877 10.0495 15.1918 10.0495 14.8269C10.0495 14.462 9.75357 14.1662 9.38874 14.1662C7.28598 14.1662 5.57536 12.4555 5.57536 10.3526C5.57536 8.24995 7.28598 6.53923 9.38874 6.53923C11.4915 6.53923 13.2021 8.24995 13.2021 10.3526V11.4714C13.2021 11.7238 12.9967 11.9291 12.7442 11.9291C12.4918 11.9291 12.2865 11.7238 12.2865 11.4714V10.3526C12.2865 8.75475 10.9866 7.45488 9.38885 7.45488C7.79099 7.45488 6.49112 8.75486 6.49112 10.3526C6.49112 11.9506 7.7911 13.2505 9.38885 13.2505C10.1253 13.2505 10.7982 12.9739 11.3098 12.5196C11.6338 12.9617 12.1553 13.2505 12.7442 13.2505C13.7254 13.2505 14.5236 12.4525 14.5236 11.4714V10.3526C14.5236 7.52128 12.2201 5.21777 9.38874 5.21777ZM9.38874 11.9291C8.51955 11.9291 7.81247 11.2219 7.81247 10.3526C7.81247 9.48342 8.51966 8.77633 9.38874 8.77633C10.2579 8.77633 10.9649 9.48342 10.9649 10.3526C10.9649 11.2219 10.2578 11.9291 9.38874 11.9291Z" fill="#C9A994"/>
</svg>
