<svg width="26" height="26" viewBox="0 0 26 26" fill="none" xmlns="http://www.w3.org/2000/svg">
<g clip-path="url(#clip0)">
<path d="M22.2326 3.40596C20.0361 1.20945 17.1155 -0.000122852 14.0093 9.35874e-09C13.5003 9.35874e-09 13.0879 0.412568 13.0879 0.921459C13.0879 1.43035 13.5005 1.84292 14.0093 1.84292C16.6233 1.84279 19.0809 2.8607 20.9294 4.70914C22.778 6.55759 23.7959 9.0153 23.7957 11.6294C23.7957 12.1383 24.2082 12.5509 24.7172 12.5509C25.2261 12.5509 25.6386 12.1383 25.6386 11.6295C25.6388 8.523 24.4292 5.60247 22.2326 3.40596Z" fill="#C9A994"/>
<path d="M18.4421 11.63C18.4421 12.1389 18.8546 12.5515 19.3636 12.5513C19.8725 12.5513 20.285 12.1388 20.285 11.6299C20.2847 8.1701 17.4695 5.35498 14.0095 5.35449C14.0093 5.35449 14.0095 5.35449 14.0093 5.35449C13.5005 5.35449 13.088 5.76694 13.0879 6.27583C13.0879 6.78472 13.5003 7.19729 14.0092 7.19741C16.4533 7.19778 18.4418 9.18616 18.4421 11.63Z" fill="#C9A994"/>
<path d="M16.4029 16.3275C14.9984 16.2548 14.2828 17.2993 13.9397 17.8011C13.6523 18.2212 13.7599 18.7945 14.18 19.0819C14.6001 19.3693 15.1735 19.2617 15.4608 18.8416C15.8663 18.2488 16.0499 18.1555 16.2991 18.1673C17.0966 18.2611 20.2375 20.5628 20.5521 21.2825C20.6309 21.4944 20.628 21.7022 20.5433 21.9549C20.2136 22.9336 19.6677 23.6214 18.9645 23.9438C18.2963 24.2501 17.4772 24.2223 16.5962 23.8638C13.3063 22.5229 10.4321 20.6516 8.05353 18.3018C8.05255 18.3008 8.05156 18.2999 8.0507 18.2989C5.70578 15.9227 3.83792 13.0521 2.49922 9.76733C2.14059 8.88555 2.11282 8.06631 2.41912 7.39832C2.7415 6.69506 3.42928 6.14919 4.40713 5.8198C4.66072 5.73478 4.86811 5.73207 5.07808 5.81021C5.80038 6.12584 8.10194 9.26667 8.19482 10.0552C8.20809 10.3137 8.1141 10.4972 7.52179 10.9019C7.1016 11.189 6.99361 11.7623 7.28073 12.1825C7.56774 12.6027 8.14101 12.7106 8.56132 12.4236C9.06333 12.0808 10.1076 11.3672 10.0352 9.95788C9.9553 8.48576 7.09165 4.58725 5.72334 4.08414C5.11481 3.85734 4.47471 3.8534 3.8201 4.07308C2.34724 4.56907 1.28351 5.45343 0.743905 6.63044C0.220516 7.77231 0.237103 9.09712 0.792435 10.4624C2.22512 13.9777 4.2296 17.0535 6.7501 19.6047C6.75624 19.611 6.7625 19.6171 6.76889 19.6231C9.31826 22.139 12.3905 24.1397 15.9012 25.5707C16.6042 25.8566 17.2965 25.9997 17.9586 25.9997C18.582 25.9997 19.1789 25.8729 19.7325 25.6191C20.9096 25.0796 21.7938 24.016 22.2902 22.5422C22.5094 21.8888 22.5058 21.2489 22.2807 20.6432C21.7759 19.2713 17.8774 16.4076 16.4029 16.3275Z" fill="#C9A994"/>
</g>
<defs>
<clipPath id="clip0">
<rect width="26" height="26" fill="white"/>
</clipPath>
</defs>
</svg>
