<svg width="64" height="53" viewBox="0 0 64 53" fill="none" xmlns="http://www.w3.org/2000/svg">
<path d="M14.0313 0.386317C17.9068 0.386317 21.1926 1.81857 23.8886 4.68308C26.5846 7.71609 27.9326 11.7601 27.9326 16.8151C27.9326 24.0606 26.8374 29.9582 24.6469 34.5077C22.4564 39.2257 20.0131 42.9327 17.3171 45.6287C14.2841 48.6617 10.6613 50.9364 6.44881 52.453L3.92131 48.4089C6.78582 47.0609 9.31332 45.4602 11.5038 43.6067C13.3573 41.9217 15.1266 39.8997 16.8116 37.5407C18.3281 35.3502 19.0863 32.6541 19.0863 29.4526C19.0863 28.2731 18.9178 27.3464 18.5808 26.6724C18.4123 26.1669 18.1596 25.8299 17.8226 25.6614C17.4856 25.8299 16.9801 25.9984 16.3061 26.1669C15.8006 26.3354 15.2951 26.5039 14.7896 26.6724C14.1156 26.8409 13.4416 26.9251 12.7676 26.9251C8.89207 26.9251 5.85906 25.7456 3.66856 23.3866C1.30955 21.1961 0.130048 18.1631 0.130048 14.2876C0.130048 10.4121 1.47805 7.12634 4.17406 4.43034C6.87007 1.73432 10.1558 0.386317 14.0313 0.386317ZM49.4164 0.386317C53.2919 0.386317 56.5777 1.81857 59.2737 4.68308C61.9697 7.71609 63.3177 11.7601 63.3177 16.8151C63.3177 24.0606 62.2225 29.9582 60.032 34.5077C57.8414 39.2257 55.3982 42.9327 52.7022 45.6287C49.6692 48.6617 46.0464 50.9364 41.8339 52.453L39.3064 48.4089C42.1709 47.0609 44.6984 45.4602 46.8889 43.6067C48.7424 41.9217 50.5117 39.8997 52.1967 37.5407C53.7132 35.3502 54.4714 32.6541 54.4714 29.4526C54.4714 28.2731 54.3029 27.3464 53.9659 26.6724C53.7974 26.1669 53.5447 25.8299 53.2077 25.6614C52.8707 25.8299 52.3652 25.9984 51.6912 26.1669C51.1857 26.3354 50.6802 26.5039 50.1747 26.6724C49.5007 26.8409 48.8267 26.9251 48.1527 26.9251C44.2772 26.9251 41.2442 25.7456 39.0536 23.3866C36.6946 21.1961 35.5151 18.1631 35.5151 14.2876C35.5151 10.4121 36.8631 7.12634 39.5591 4.43034C42.2552 1.73432 45.5409 0.386317 49.4164 0.386317Z" fill="#C9A994"/>
</svg>
