<svg width="56" height="46" viewBox="0 0 56 46" fill="none" xmlns="http://www.w3.org/2000/svg">
<path d="M43.3604 45.8483C40.0092 45.8483 37.168 44.6098 34.8368 42.1329C32.5055 39.5102 31.3399 36.0133 31.3399 31.6422C31.3399 25.377 32.287 20.2774 34.1811 16.3434C36.0753 12.2637 38.1879 9.05821 40.5192 6.72697C43.1419 4.1043 46.2745 2.13731 49.9171 0.825979L52.1026 4.32287C49.6257 5.48849 47.4401 6.87267 45.546 8.47541C43.9432 9.93244 42.4133 11.6809 40.9563 13.7207C39.645 15.6149 38.9893 17.9461 38.9893 20.7145C38.9893 21.7344 39.135 22.5358 39.4264 23.1186C39.5721 23.5557 39.7907 23.8471 40.0821 23.9928C40.3735 23.8471 40.8106 23.7014 41.3934 23.5557C41.8305 23.41 42.2676 23.2643 42.7047 23.1186C43.2876 22.9729 43.8704 22.9 44.4532 22.9C47.8044 22.9 50.427 23.92 52.3212 25.9598C54.361 27.8539 55.3809 30.4766 55.3809 33.8278C55.3809 37.179 54.2153 40.0202 51.8841 42.3514C49.5528 44.6827 46.7116 45.8483 43.3604 45.8483ZM12.7627 45.8483C9.41155 45.8483 6.57033 44.6098 4.23908 42.1329C1.90782 39.5102 0.742198 36.0133 0.742198 31.6422C0.742198 25.377 1.68927 20.2774 3.58341 16.3434C5.47756 12.2637 7.59025 9.05821 9.92151 6.72697C12.5442 4.1043 15.6768 2.13731 19.3194 0.825979L21.5049 4.32287C19.028 5.48849 16.8424 6.87267 14.9483 8.47541C13.3455 9.93244 11.8156 11.6809 10.3586 13.7207C9.04729 15.6149 8.39162 17.9461 8.39162 20.7145C8.39162 21.7344 8.53733 22.5358 8.82873 23.1186C8.97443 23.5557 9.19299 23.8471 9.4844 23.9928C9.7758 23.8471 10.2129 23.7014 10.7957 23.5557C11.2328 23.41 11.6699 23.2643 12.1071 23.1186C12.6899 22.9729 13.2727 22.9 13.8555 22.9C17.2067 22.9 19.8293 23.92 21.7235 25.9598C23.7633 27.8539 24.7832 30.4766 24.7832 33.8278C24.7832 37.179 23.6176 40.0202 21.2864 42.3514C18.9551 44.6827 16.1139 45.8483 12.7627 45.8483Z" fill="#C9A994"/>
</svg>
