<svg width="26" height="26" viewBox="0 0 26 26" fill="none" xmlns="http://www.w3.org/2000/svg">
<path d="M17.9118 2C13.0584 2 9.03421 2 3.70717 2C2.21275 2 1 3.21147 1 4.70588V22.2941C1 23.7885 2.21147 25 3.70588 25H21.2941C22.7885 25 24 23.7885 24 22.2941V8.08824" stroke="white" stroke-width="0.958333"/>
<path d="M24.3354 2C24.3354 1.81476 24.1852 1.66458 24 1.66458L20.9812 1.66458C20.796 1.66458 20.6458 1.81476 20.6458 2C20.6458 2.18525 20.796 2.33542 20.9812 2.33542L23.6646 2.33542L23.6646 5.01875C23.6646 5.204 23.8148 5.35417 24 5.35417C24.1852 5.35417 24.3354 5.204 24.3354 5.01875L24.3354 2ZM12.7372 13.7372L24.2372 2.23718L23.7628 1.76283L12.2628 13.2628L12.7372 13.7372Z" fill="white"/>
</svg>
