<svg width="19" height="27" viewBox="0 0 19 27" fill="none" xmlns="http://www.w3.org/2000/svg">
<path d="M16.3421 0H2.4669C1.53092 0 0.769531 0.761442 0.769531 1.69742V25.1136C0.769531 26.0496 1.53097 26.8111 2.46695 26.8111H16.3421C17.2781 26.8111 18.0395 26.0496 18.0395 25.1136V1.69742C18.0395 0.761442 17.2781 0 16.3421 0ZM1.62011 4.2663H17.189V21.9974H1.62011V4.2663ZM2.4669 0.850583H16.3421C16.809 0.850583 17.189 1.23045 17.189 1.69742V3.69924H1.62011V1.69742C1.62011 1.23045 1.99998 0.850583 2.4669 0.850583ZM16.3421 25.9604H2.4669C1.99998 25.9604 1.62006 25.5806 1.62006 25.1136V22.5644H17.1889V25.1136C17.1889 25.5806 16.809 25.9604 16.3421 25.9604Z" fill="white"/>
<path d="M9.40659 22.9404C8.63851 22.9404 8.01367 23.5653 8.01367 24.3333C8.01367 25.1014 8.63857 25.7263 9.40659 25.7263C10.1746 25.7263 10.7995 25.1014 10.7995 24.3333C10.7995 23.5653 10.1747 22.9404 9.40659 22.9404ZM9.40659 25.1592C8.95119 25.1592 8.58073 24.7887 8.58073 24.3333C8.58073 23.8779 8.95119 23.5074 9.40659 23.5074C9.86199 23.5074 10.2324 23.8779 10.2324 24.3333C10.2324 24.7887 9.86199 25.1592 9.40659 25.1592Z" fill="#C9A994"/>
<path d="M7.47689 2.7017H11.3329C11.4895 2.7017 11.6164 2.57474 11.6164 2.41817C11.6164 2.26161 11.4895 2.13464 11.3329 2.13464H7.47689C7.32027 2.13464 7.19336 2.26161 7.19336 2.41817C7.19336 2.57474 7.32027 2.7017 7.47689 2.7017Z" fill="#C9A994"/>
<path d="M6.45736 2.7017C6.53164 2.7017 6.60479 2.67165 6.65753 2.61891C6.71026 2.56561 6.74088 2.49302 6.74088 2.41817C6.74088 2.34332 6.71026 2.27074 6.65753 2.21743C6.60473 2.1647 6.53158 2.13464 6.45736 2.13464C6.3825 2.13464 6.30987 2.1647 6.25662 2.21743C6.20388 2.27017 6.17383 2.34332 6.17383 2.41817C6.17383 2.49302 6.20388 2.56561 6.25662 2.61891C6.30935 2.67165 6.3825 2.7017 6.45736 2.7017Z" fill="#C9A994"/>
</svg>
