<svg width="18" height="18" viewBox="0 0 18 18" fill="none" xmlns="http://www.w3.org/2000/svg">
<path d="M8.99991 0C4.03736 0 0 4.03727 0 8.99974C0 13.9626 4.03736 18 8.99991 18C13.9624 18 17.9997 13.9625 17.9997 8.99974C17.9997 4.03727 13.9624 0 8.99991 0ZM8.99991 16.7099C4.74874 16.7099 1.29014 13.2511 1.29014 8.99974C1.29014 4.74865 4.74874 1.29014 8.99991 1.29014C13.251 1.29014 16.7095 4.74865 16.7095 8.99974C16.7095 13.2511 13.251 16.7099 8.99991 16.7099Z" fill="#D3CBCB"/>
<path d="M13.627 8.84929H9.39756V4.22612C9.39756 3.86987 9.10883 3.58105 8.75249 3.58105C8.39624 3.58105 8.10742 3.86987 8.10742 4.22612V9.49436C8.10742 9.85061 8.39624 10.1394 8.75249 10.1394H13.627C13.9833 10.1394 14.272 9.85061 14.272 9.49436C14.272 9.13811 13.9832 8.84929 13.627 8.84929Z" fill="#D3CBCB"/>
</svg>
