<svg width="27" height="27" viewBox="0 0 27 27" fill="none" xmlns="http://www.w3.org/2000/svg">
<path d="M25.7724 13.6132V9.81844C25.7724 8.53166 24.7743 7.48518 23.5132 7.3837L19.9891 1.22827C19.6625 0.658973 19.1351 0.252082 18.5041 0.0831234C17.8761 -0.0846842 17.2194 0.00344791 16.6573 0.330607L4.57631 7.36391H2.45452C1.10085 7.36391 0 8.4647 0 9.81844V24.5455C0 25.8991 1.10079 27 2.45452 27H23.3178C24.6715 27 25.7724 25.8992 25.7724 24.5455V20.7507C26.4851 20.4965 26.9996 19.8218 26.9996 19.0228V15.3411C26.9996 14.5421 26.4851 13.8674 25.7724 13.6132ZM22.0872 7.36391H16.7388L20.7501 5.02853L22.0872 7.36391ZM20.1404 3.96352L14.2997 7.36391H11.877L19.5346 2.90554L20.1404 3.96352ZM17.275 1.39124C17.5525 1.22884 17.8767 1.18569 18.1865 1.26842C18.4999 1.35229 18.7612 1.55485 18.9236 1.83829L18.9249 1.84053L9.43801 7.36391H7.01548L17.275 1.39124ZM24.5451 24.5455C24.5451 25.222 23.9944 25.7727 23.3178 25.7727H2.45452C1.778 25.7727 1.22729 25.222 1.22729 24.5455V9.81844C1.22729 9.14192 1.778 8.59121 2.45452 8.59121H23.3178C23.9944 8.59121 24.5451 9.14192 24.5451 9.81844V13.5002H20.8633C18.8331 13.5002 17.1816 15.1517 17.1816 17.182C17.1816 19.2122 18.8331 20.8637 20.8633 20.8637H24.5451V24.5455ZM25.7724 19.0228C25.7724 19.3614 25.4973 19.6365 25.1587 19.6365H20.8633C19.5096 19.6365 18.4088 18.5357 18.4088 17.182C18.4088 15.8283 19.5096 14.7274 20.8633 14.7274H25.1587C25.4973 14.7274 25.7724 15.0025 25.7724 15.3411V19.0228Z" fill="url(#paint0_linear)"/>
<path d="M20.864 15.9546C20.1874 15.9546 19.6367 16.5053 19.6367 17.1818C19.6367 17.8583 20.1874 18.4091 20.864 18.4091C21.5405 18.4091 22.0912 17.8583 22.0912 17.1818C22.0912 16.5053 21.5405 15.9546 20.864 15.9546Z" fill="url(#paint1_linear)"/>
<defs>
<linearGradient id="paint0_linear" x1="1.84929" y1="13.32" x2="28.8305" y2="13.3514" gradientUnits="userSpaceOnUse">
<stop offset="0.104167" stop-color="#EEB67A"/>
<stop offset="1" stop-color="#BC8B56"/>
</linearGradient>
<linearGradient id="paint1_linear" x1="19.8048" y1="17.1655" x2="22.2576" y2="17.1683" gradientUnits="userSpaceOnUse">
<stop offset="0.104167" stop-color="#EEB67A"/>
<stop offset="1" stop-color="#BC8B56"/>
</linearGradient>
</defs>
</svg>
