<svg width="23" height="23" viewBox="0 0 23 23" fill="none" xmlns="http://www.w3.org/2000/svg">
<path d="M19.0209 14.6547C19.1748 10.4833 19.5934 6.32703 20.2715 2.25563C20.393 1.78653 20.1992 1.24705 19.23 0.868988C17.3992 0.154915 13.4967 0 11.498 0C9.51692 0 5.602 0.152939 3.76611 0.868988C2.797 1.24705 2.60337 1.78622 2.72455 2.25514C3.40256 6.32694 3.82127 10.4834 3.97519 14.6546C1.40659 15.531 0 16.8082 0 18.2801C0 19.6605 1.28486 20.8997 3.61802 21.7696C8.00644 23.4059 14.9887 23.4062 19.378 21.7696C21.7111 20.8997 22.9961 19.6605 22.9961 18.2801C22.996 16.8083 21.5895 15.531 19.0209 14.6547ZM11.498 1.34743C13.4283 1.34743 16.6891 1.49143 18.436 2.02113C16.6883 2.55113 13.4411 2.69482 11.498 2.69482C9.56772 2.69482 6.30696 2.55086 4.56004 2.02113C6.30786 1.49112 9.55492 1.34743 11.498 1.34743ZM11.498 4.04225C13.6816 4.04225 16.8502 3.88033 18.7346 3.33815C18.1319 7.29048 17.7687 11.3138 17.6499 15.347C17.6428 15.3658 17.6363 15.3849 17.6309 15.4044C17.5014 15.492 17.0424 15.7362 15.726 15.9546C13.0405 16.4 9.0515 16.352 6.64715 15.8374C6.03108 15.7055 5.58785 15.5549 5.36516 15.4043C5.35973 15.3848 5.3533 15.3657 5.34621 15.347C5.2274 11.3139 4.86417 7.29053 4.26149 3.33806C6.18878 3.89273 9.40926 4.04225 11.498 4.04225ZM17.6164 16.8888C17.6107 17.2976 17.6072 17.7063 17.6065 18.115C17.308 18.3011 16.8116 18.4502 16.214 18.5681C13.7499 19.054 9.40728 19.1123 6.69216 18.5417C6.08018 18.4131 5.63066 18.2653 5.38955 18.115C5.38888 17.7063 5.38537 17.2975 5.37962 16.8888C5.76047 17.0216 6.18047 17.1195 6.58068 17.1988C9.23678 17.7252 13.2335 17.7229 15.8995 17.2941C16.5364 17.1917 17.1287 17.0589 17.6164 16.8888ZM18.9073 20.5071C14.8197 22.0312 8.17425 22.0304 4.08874 20.5071C2.37219 19.8671 1.34743 19.0346 1.34743 18.2801C1.34743 17.521 2.35018 16.7052 4.01714 16.0719C4.03367 16.8078 4.0423 17.544 4.0423 18.2801C4.0423 19.2644 5.39889 19.6595 6.58077 19.8937C9.32374 20.4373 13.6712 20.4375 16.4153 19.8937C17.5972 19.6595 18.9538 19.2644 18.9538 18.2801C18.9538 17.5441 18.9624 16.8078 18.979 16.0719C20.646 16.7052 21.6487 17.521 21.6487 18.2801C21.6487 19.0346 20.6239 19.8671 18.9073 20.5071Z" fill="url(#paint0_linear)"/>
<defs>
<linearGradient id="paint0_linear" x1="1.57507" y1="11.3452" x2="24.5555" y2="11.3719" gradientUnits="userSpaceOnUse">
<stop offset="0.104167" stop-color="#EEB67A"/>
<stop offset="1" stop-color="#BC8B56"/>
</linearGradient>
</defs>
</svg>
