<svg width="20" height="24" viewBox="0 0 20 24" fill="none" xmlns="http://www.w3.org/2000/svg">
<path d="M9.95318 0.000244141C4.87308 0.000244141 0.740234 4.13364 0.740234 9.21429C0.740234 12.8446 2.26012 16.5169 5.1356 19.834C7.28329 22.3116 9.41171 23.7154 9.50135 23.7739C9.63856 23.8637 9.79592 23.9085 9.95329 23.9085C10.1105 23.9085 10.2679 23.8637 10.4052 23.7739C10.4948 23.7154 12.6235 22.3116 14.7712 19.8341C17.6469 16.5169 19.1669 12.8446 19.1669 9.21429C19.1668 4.13364 15.0335 0.000244141 9.95318 0.000244141ZM9.95318 22.0685C8.25875 20.8058 2.39205 15.9464 2.39205 9.21429C2.39205 5.04445 5.78389 1.65206 9.95318 1.65206C14.1228 1.65206 17.515 5.04445 17.515 9.21429C17.515 15.9464 11.6477 20.8058 9.95318 22.0685Z" fill="url(#paint0_linear)"/>
<path d="M9.95355 5.55542C7.93724 5.55542 6.29688 7.19589 6.29688 9.21243C6.29688 11.2284 7.93724 12.8686 9.95355 12.8686C11.9699 12.8686 13.6101 11.2284 13.6101 9.21243C13.6101 7.196 11.9698 5.55542 9.95355 5.55542ZM9.95355 11.2167C8.84805 11.2167 7.94869 10.3176 7.94869 9.21243C7.94869 8.1067 8.84805 7.20723 9.95355 7.20723C11.0589 7.20723 11.9583 8.1067 11.9583 9.21243C11.9583 10.3176 11.0589 11.2167 9.95355 11.2167Z" fill="url(#paint1_linear)"/>
<defs>
<linearGradient id="paint0_linear" x1="2.00233" y1="11.795" x2="20.4164" y2="11.8115" gradientUnits="userSpaceOnUse">
<stop offset="0.104167" stop-color="#EEB67A"/>
<stop offset="1" stop-color="#BC8B56"/>
</linearGradient>
<linearGradient id="paint1_linear" x1="6.79778" y1="9.16323" x2="14.106" y2="9.17173" gradientUnits="userSpaceOnUse">
<stop offset="0.104167" stop-color="#EEB67A"/>
<stop offset="1" stop-color="#BC8B56"/>
</linearGradient>
</defs>
</svg>
