<svg width="26" height="26" viewBox="0 0 26 26" fill="none" xmlns="http://www.w3.org/2000/svg">
<g clip-path="url(#clip0)">
<path d="M22.4209 6.83637L25.7765 3.48482C25.9946 3.26702 26.0599 2.93933 25.9421 2.6546C25.8242 2.36982 25.5464 2.18411 25.2382 2.18411H23.7148V0.762238C23.7148 0.451914 23.5266 0.172618 23.2389 0.0561766C22.9511 -0.0602646 22.6217 0.00940715 22.4059 0.232336L19.1559 3.58846C19.0183 3.73055 18.9414 3.92057 18.9414 4.11836V5.88276C16.8675 4.08769 14.2366 3.10802 11.4462 3.10802C5.09218 3.10807 0 8.19827 0 14.5543C0 20.9083 5.09015 26.0005 11.4462 26.0005C17.8002 26.0005 22.8924 20.9103 22.8924 14.5543C22.8924 11.7639 21.9127 9.13305 20.1177 7.0591H21.8826C22.0845 7.0591 22.2781 6.97902 22.4209 6.83637ZM18.4736 21.5817C16.6065 23.4488 14.1108 24.477 11.4462 24.477C5.93418 24.477 1.52343 20.0683 1.52343 14.5543C1.52343 8.96796 6.02417 4.62069 11.4462 4.62069C13.7532 4.62069 16.0603 5.41679 17.9148 7.00893L16.8333 8.09036C15.3305 6.83668 13.4449 6.15367 11.4462 6.15367C6.77756 6.15367 3.0456 9.88416 3.0456 14.5542C3.0456 19.2227 6.77593 22.9548 11.4462 22.9548C16.1148 22.9548 19.8467 19.2243 19.8467 14.5542C19.8467 12.5558 19.1639 10.6704 17.9105 9.16764L18.992 8.08615C22.34 11.9864 22.1672 17.888 18.4736 21.5817ZM11.4716 12.2445C10.2076 12.2445 9.18727 13.2647 9.18727 14.5289C9.18727 15.7929 10.2074 16.8131 11.4716 16.8131C12.7356 16.8131 13.7559 15.7931 13.7559 14.5289C13.7559 14.1821 13.6792 13.8474 13.5342 13.5439L14.6487 12.4294C15.0581 13.05 15.2781 13.7827 15.2781 14.5543C15.2781 18.0627 11.0546 19.5995 8.72771 17.2728C6.40635 14.9514 7.9281 10.7224 11.4462 10.7224C12.218 10.7224 12.951 10.9425 13.5717 11.352L12.4572 12.4665C12.1535 12.3213 11.8186 12.2445 11.4716 12.2445ZM12.2325 14.5289C12.2325 14.9509 11.8937 15.2898 11.4716 15.2898C11.2676 15.2898 11.0763 15.2108 10.933 15.0675C10.7897 14.9242 10.7108 14.7329 10.7108 14.5289C10.7108 14.1069 11.0495 13.768 11.4716 13.768C11.8936 13.768 12.2325 14.1068 12.2325 14.5289ZM14.6649 10.2588C13.7462 9.57109 12.6278 9.19892 11.4462 9.19892C8.4638 9.19892 6.09084 11.5703 6.09084 14.5542C6.09084 17.5366 8.46232 19.9096 11.4462 19.9096C14.4285 19.9096 16.8015 17.5381 16.8015 14.5542C16.8015 13.3729 16.4295 12.2547 15.7421 11.336L16.8278 10.2503C17.7968 11.4617 18.3233 12.9637 18.3233 14.5542C18.3233 18.3807 15.2744 21.4313 11.4462 21.4313C7.61951 21.4313 4.56903 18.3822 4.56903 14.5542C4.56903 10.7268 7.61895 7.67706 11.4462 7.67706C13.0369 7.67706 14.5391 8.20376 15.7506 9.17297L14.6649 10.2588ZM20.4648 5.53567V4.42676L22.1914 2.64383V2.94583C22.1914 3.3665 22.5324 3.70754 22.9531 3.70754H23.3977L21.5674 5.53567H20.4648Z" fill="url(#paint0_linear)"/>
</g>
<defs>
<linearGradient id="paint0_linear" x1="1.78082" y1="12.8271" x2="27.7631" y2="12.8573" gradientUnits="userSpaceOnUse">
<stop offset="0.104167" stop-color="#EEB67A"/>
<stop offset="1" stop-color="#BC8B56"/>
</linearGradient>
<clipPath id="clip0">
<rect width="26" height="26" fill="white"/>
</clipPath>
</defs>
</svg>
